<?xml version="1.0" encoding="utf-8" ?>
<svg xmlns="http://www.w3.org/2000/svg" width="418" height="341" viewBox="303 109 418 341">
  <path fill="black" transform="scale(0.363636 0.363932)" d="M1190.99 923.042L1191.17 518.345L1191.08 393.169C1191.04 369.39 1190.6 345.632 1191.7 321.814C1192.37 307.413 1204.9 302.668 1217.36 301.564C1235.23 299.982 1253.83 301.525 1271.78 300.985C1298.02 300.938 1324.26 301.029 1350.48 301.183C1357.56 301.225 1366.69 303.728 1371.48 308.99C1376.24 314.218 1377.66 321.177 1377.78 328.082C1378.25 355.17 1377.73 382.607 1377.46 409.692L1376.32 562.435L1377.9 1051.92C1392.08 1052.63 1407.54 1052.31 1421.79 1052.09L1421.65 317.262C1425.96 310.343 1431.59 302.603 1440.51 302.084C1462.13 300.827 1483.95 301.622 1505.64 301.508L1556.47 301.146C1573.67 301.036 1588.47 298.189 1602.71 309.238C1605.12 314.451 1606.88 317.835 1606.96 323.737C1607.25 345.353 1607.11 366.989 1607.08 388.61L1607.01 508.226L1606.91 878.166L1841.69 878.074L1914.27 877.908C1928.44 877.872 1946.56 877.36 1960.29 878.744C1994.38 883.993 1973.7 921.162 1965.06 939.016C1942.13 986.408 1907.06 1017.62 1867.04 1050.31C1879.7 1056.15 1952.6 1047.1 1969.53 1054.89C1976.56 1058.13 1979.11 1062.47 1981.61 1069.3C1982.03 1070.42 1982.41 1071.55 1982.77 1072.69C1980.9 1078.6 1977.48 1089.9 1971.58 1091.94C1954.66 1097.77 1926.75 1095.59 1909.42 1095.52L1836.74 1095.51L1779.97 1095.56C1768.14 1095.59 1755.34 1096.11 1743.67 1095.05C1724.01 1095.64 1706.84 1095.39 1687.23 1094.87C1686.55 1094.95 1685.88 1095.01 1685.2 1095.05C1669.39 1096.1 1651.36 1095.64 1635.35 1095.57L1559.24 1095.31L1315.47 1095.19L1010.5 1095.49L914.845 1095.31C897.34 1095.27 879.546 1095.32 862.088 1094.98C853.59 1094.38 846.205 1093.9 839.474 1088.32C831.251 1081.5 833.9 1065.21 840.718 1058.46C848.446 1050.8 869.321 1052.31 879.974 1052.3C885.21 1040.46 891.708 1025.11 898.283 1014.15C915.681 985.15 943.096 956.577 971.695 938.446C1020.09 907.765 1080.81 896.349 1137.05 907.308C1155.52 910.906 1172.51 918.921 1190.99 923.042ZM1235.71 344.011C1232.2 354.492 1234.2 455.439 1234.21 473.195L1234.4 792.042C1234.44 842.512 1236.22 902.018 1234.45 951.668C1270.22 981.568 1289.69 1008.34 1306.94 1052.13C1315.78 1052.26 1324.88 1052.59 1333.67 1051.86L1333.62 563.756L1333.62 423.563C1333.73 396.735 1334.8 370.349 1334.02 343.5C1322.93 346.116 1247.08 345.97 1235.71 344.011ZM1564.01 344.631C1559.18 345.032 1553.15 345.071 1548.21 345.238C1527 344.771 1484.33 347.814 1465.71 343.919C1463.6 350.424 1465.01 406.403 1464.98 418.18L1465.08 697.385L1465.05 814.029C1465.03 832.365 1464.09 860.774 1465.53 878.208L1471.49 878.235C1485.25 877.473 1557.05 880.846 1564.2 875.531C1563.94 865.734 1564.62 853.832 1564.53 843.508L1564.33 698.515L1564.01 344.631ZM1477.85 965.632C1474.07 959.853 1470.46 953.172 1467.03 947.117C1465.62 949.156 1464.71 951.183 1464.72 953.696C1464.87 986.283 1464.02 1019.69 1464.14 1052.2C1478.16 1052.52 1554.44 1054.51 1562.26 1050.51L1557.3 1047.41C1520.38 1017.86 1506.2 1004.62 1477.85 965.632ZM1076.25 946.356C1002.77 957.088 962.828 989.724 925.564 1051.93L1111.5 1052.07C1159.32 1052.1 1212.54 1053.29 1259.88 1051.95C1220.72 979.689 1159.93 940.569 1076.25 946.356ZM1505.19 921.244C1511.15 950.893 1559.69 996.598 1585.21 1013.52C1636.97 1048.07 1700.4 1060.5 1761.38 1048.02C1800 1040.17 1835.93 1022.46 1865.68 996.608C1888.14 974.389 1911.67 951.415 1923.76 921.587C1872.04 920.215 1820.51 921.33 1768.81 921.368L1505.19 921.244Z"/>
  <path fill="white" fill-opacity="0.011764706" transform="scale(0.363636 0.363932)" d="M1465.53 878.208C1464.09 860.774 1465.03 832.365 1465.05 814.029L1465.08 697.385L1464.98 418.18C1465.01 406.403 1463.6 350.424 1465.71 343.919C1484.33 347.814 1527 344.771 1548.21 345.238C1542.58 347.989 1487.79 348.578 1474.98 350.52C1472.39 354.372 1470.47 356.737 1470.04 361.441C1468.39 379.51 1470.36 399.259 1469.71 416.994C1468.12 460.491 1468.56 502.144 1469.08 545.569C1470.15 629.589 1470.2 713.619 1469.23 797.641C1469.15 821.075 1468.66 845.297 1471.25 868.616C1471.3 869.072 1470.54 871.739 1470.36 872.338C1476.01 873.688 1501.1 873.264 1508.73 873.299C1521.47 873.401 1534.21 873.753 1546.94 874.355C1551.06 874.519 1560.61 874.584 1564.2 875.531C1557.05 880.846 1485.25 877.473 1471.49 878.235L1465.53 878.208Z"/>
  <path fill="white" fill-opacity="0.011764706" transform="scale(0.363636 0.363932)" d="M1467.03 947.117C1470.46 953.172 1474.07 959.853 1477.85 965.632C1474.95 964.835 1472.94 963.77 1470.35 964.429C1469 973.076 1469.14 987.797 1468.96 997.011C1468.58 1014.04 1468.34 1031.08 1468.25 1048.11C1481.22 1048.53 1549.97 1051.18 1557.3 1047.41L1562.26 1050.51C1554.44 1054.51 1478.16 1052.2C1464.14 1052.2C1464.02 1019.69 1464.87 986.283 1464.72 953.696C1464.71 951.183 1465.62 949.156 1467.03 947.117Z"/>
  <path fill="black" transform="scale(0.363636 0.363932)" d="M1465.53 878.208L1471.49 878.235C1490.88 879.932 1522.84 878.907 1543.18 878.874L1667.06 878.934L1861.88 878.854C1893.02 878.842 1929.67 879.728 1960.29 878.744C1994.38 883.993 1973.7 921.162 1965.06 939.016C1942.13 986.408 1907.06 1017.62 1867.04 1050.31C1879.7 1056.15 1952.6 1047.1 1969.53 1054.89C1976.56 1058.13 1979.11 1062.47 1981.61 1069.3C1982.03 1070.42 1982.41 1071.55 1982.77 1072.69C1980.9 1078.6 1977.48 1089.9 1971.58 1091.94C1954.66 1097.77 1926.75 1095.59 1909.42 1095.52L1836.74 1095.51L1779.97 1095.56C1768.14 1095.59 1755.34 1096.11 1743.67 1095.05C1724.01 1095.64 1706.84 1095.39 1687.23 1094.87C1680.34 1093.52 1670.95 1092.79 1663.28 1091.39C1640.85 1087.07 1619.05 1079.93 1598.41 1070.12C1586.37 1064.28 1574.39 1056.42 1562.26 1050.51L1557.3 1047.41C1520.38 1017.86 1506.2 1004.62 1477.85 965.632C1474.07 959.853 1470.46 953.172 1467.03 947.117C1459.5 927.971 1431.13 890.744 1465.53 878.208ZM1865.68 996.608C1888.14 974.389 1911.67 951.415 1923.76 921.587C1872.04 920.215 1820.51 921.33 1768.81 921.368L1505.19 921.244C1511.15 950.893 1559.69 996.598 1585.21 1013.52C1636.97 1048.07 1700.4 1060.5 1761.38 1048.02C1800 1040.17 1835.93 1022.46 1865.68 996.608Z"/>
  <path fill="black" transform="scale(0.363636 0.363932)" d="M1867.04 1050.31C1879.7 1056.15 1952.6 1047.1 1969.53 1054.89C1976.56 1058.13 1979.11 1062.47 1981.61 1069.3C1982.03 1070.42 1982.41 1071.55 1982.77 1072.69C1980.9 1078.6 1977.48 1089.9 1971.58 1091.94C1954.66 1097.77 1926.75 1095.59 1909.42 1095.52L1836.74 1095.51L1779.97 1095.56C1768.14 1095.59 1755.34 1096.11 1743.67 1095.05C1753.1 1092.71 1766.91 1090.94 1777.51 1088.47C1813.66 1080.03 1835.83 1069.22 1867.04 1050.31Z"/>
  <path fill="black" transform="scale(0.363636 0.363932)" d="M1190.99 923.042L1191.17 518.345L1191.08 393.169C1191.04 369.39 1190.6 345.632 1191.7 321.814C1192.37 307.413 1204.9 302.668 1217.36 301.564C1235.23 299.982 1253.83 301.525 1271.78 300.985C1298.02 300.938 1324.26 301.029 1350.48 301.183C1357.56 301.225 1366.69 303.728 1371.48 308.99C1376.24 314.218 1377.66 321.177 1377.78 328.082C1378.25 355.17 1377.73 382.607 1377.46 409.692L1376.32 562.435L1377.9 1051.92C1364.16 1052.74 1347.64 1052.09 1333.67 1051.86L1333.62 563.756L1333.62 423.563C1333.73 396.735 1334.8 370.349 1334.02 343.5C1322.93 346.116 1247.08 345.97 1235.71 344.011C1232.2 354.492 1234.2 455.439 1234.21 473.195L1234.4 792.042C1234.44 842.512 1236.22 902.018 1234.45 951.668C1220.11 939.737 1203.25 933.092 1190.99 923.042Z"/>
  <path fill="black" transform="scale(0.363636 0.363932)" d="M1235.71 344.011C1255.84 336.525 1309.82 340.561 1333.37 343.096C1333.59 343.231 1333.81 343.365 1334.02 343.5C1322.93 346.116 1247.08 345.97 1235.71 344.011Z"/>
  <path fill="black" transform="scale(0.363636 0.363932)" d="M1465.71 343.919C1474.09 339.579 1555.12 338.117 1564.01 344.631C1559.18 345.032 1553.15 345.071 1548.21 345.238C1527 344.771 1484.33 347.814 1465.71 343.919Z"/>
  <path fill="black" transform="scale(0.363636 0.363932)" d="M847.846 1231.98C826.235 1216.19 834.054 1196.67 854.612 1192.17C868.126 1189.22 903.271 1191.18 918.391 1191.19L1051.43 1191.19L1460.78 1191.17L1788.11 1191.18L1895.17 1191.18C1914.81 1191.18 1934.27 1191.03 1954.1 1191.46C1965.81 1191.72 1983.6 1196.62 1983.17 1211.76C1982.94 1219.82 1976.78 1225.98 1971.05 1231.06C1967.53 1232.79 1963.42 1234.73 1959.5 1234.77C1926.95 1235.14 1893.88 1234.98 1861.35 1234.98L1664.14 1235L1055.03 1234.99L928.376 1235.2C912.453 1235.25 859.626 1237.37 847.846 1231.98Z"/>
  <path fill="black" transform="scale(0.363636 0.363932)" d="M847.846 1231.98C859.411 1230.98 876.459 1231.81 888.572 1231.84L965.745 1231.87L1222.49 1231.92L1971.05 1231.06C1967.53 1232.79 1963.42 1234.73 1959.5 1234.77C1926.95 1235.14 1893.88 1234.98 1861.35 1234.98L1664.14 1235L1055.03 1234.99L928.376 1235.2C912.453 1235.25 859.626 1237.37 847.846 1231.98Z"/>
</svg>
